<svg xmlns="http://www.w3.org/2000/svg" xmlns:xlink="http://www.w3.org/1999/xlink" version="1.1" enable-background="new 0 0 1000 1000" xml:space="preserve" width="1000" height="1000" style=""><rect id="backgroundrect" width="100%" height="100%" x="0" y="0" fill="none" stroke="none"/>
<metadata> Svg Vector Icons : http://www.onlinewebfonts.com/icon </metadata>

<g class="currentLayer" style=""><title>Layer 1</title><g id="svg_1" class="selected" fill="#04b8b8" fill-opacity="1" stroke-opacity="1" stroke="#2f9291"><g transform="translate(0,511) scale(0.10000000149011612,-0.10000000149011612) " id="svg_2" fill="#04b8b8" fill-opacity="1" stroke="#2f9291"><path d="M5562.361181068421,4446.1 c-481,-80.5 -960,-346.8 -1268.5,-705.2 c-139.9,-162.9 -222.3,-291.3 -321.9,-496.3 c-42.2,-84.3 -78.6,-157.1 -82.4,-162.9 c-3.8,-3.8 -55.6,15.3 -115,40.2 c-245.3,109.2 -567.2,151.4 -831.6,107.3 c-697.5,-111.1 -1222.5,-670.7 -1299.2,-1381.6 l-13.4,-126.5 l-138,-11.5 c-477.1,-42.2 -898.7,-295.1 -1161.2,-697.5 C160.5611810684204,751.6 91.56118106842041,515.9 91.56118106842041,182.5 c0,-433.1 143.7,-781.8 442.6,-1080.8 c304.7,-304.7 620.8,-431.1 1121,-446.5 l298.9,-9.6 l24.9,130.3 c63.2,344.9 249.1,795.2 452.2,1101.8 c469.5,703.3 1151.6,1157.4 1985.2,1324.1 c312.3,61.3 833.6,61.3 1142.1,0 c300.8,-61.3 532.7,-139.9 799.1,-272.1 c808.6,-404.3 1389.3,-1136.3 1605.8,-2027.4 c32.6,-134.1 61.3,-245.3 63.2,-249.1 c1.9,-3.8 84.3,7.7 182,23 c408.2,67.1 755,237.6 1052,523.1 c191.6,180.1 306.6,333.4 408.1,532.7 c295.1,588.3 297,1228.3 5.7,1810.8 c-97.7,193.5 -168.6,291.3 -346.8,477.1 c-308.5,321.9 -676.4,515.5 -1109.5,586.4 c-93.9,15.3 -178.2,38.3 -185.9,49.8 c-7.7,13.4 -19.2,61.3 -26.8,109.2 c-36.4,249.1 -212.7,624.7 -412,883.4 C7120.26118106842,4260.2 6319.26118106842,4574.5 5562.361181068421,4446.1 z" id="svg_3" fill="#04b8b8" fill-opacity="1" stroke="#2f9291"/><path d="M4613.861181068421,613.7 c-500.1,-80.5 -956.2,-308.5 -1322.2,-663 c-366,-354.5 -603.6,-779.9 -710.9,-1281.9 c-49.8,-228 -49.8,-730.1 0,-958.1 c105.4,-492.5 323.8,-892.9 680.3,-1247.4 c362.2,-360.3 751.2,-573 1247.5,-680.3 c228,-49.8 730.1,-49.8 958.1,0 c492.5,105.4 892.9,323.8 1247.4,680.3 c557.6,557.6 810.6,1306.8 699.4,2071.4 c-80.5,542.3 -304.7,986.8 -699.4,1381.6 c-354.5,354.5 -726.2,561.5 -1209.1,670.7 C5282.56118106842,636.7 4843.76118106842,650.1 4613.861181068421,613.7 zM5351.56118106842,-104.9 c283.6,-72.8 538.5,-216.5 747.3,-419.7 c65.2,-65.1 122.6,-116.9 126.5,-116.9 c3.8,0 70.9,40.2 149.5,88.1 c226.1,139.9 212.7,172.5 218.4,-511.6 c5.8,-664.9 5.8,-659.2 -124.6,-605.5 c-40.2,15.3 -277.9,130.3 -527,254.9 c-546.1,270.2 -538.5,258.7 -293.2,408.1 c90.1,55.6 162.9,107.3 162.9,116.9 s-49.8,57.5 -109.2,107.3 c-297,241.5 -710.9,329.6 -1065.4,224.2 c-291.3,-84.3 -590.2,-327.7 -722.4,-588.3 c-74.7,-145.6 -126.5,-184 -251,-184 c-63.2,0 -90.1,11.5 -143.7,65.1 c-82.4,82.4 -88.1,178.2 -15.3,323.8 C3736.1611810684203,-480.5 4199.96118106842,-149 4728.76118106842,-66.6 C4887.861181068421,-43.6 5177.161181068421,-60.8 5351.56118106842,-104.9 zM3979.5611810684204,-2185.9 c268.3,-132.2 494.4,-249.1 500.1,-258.7 c26.8,-40.2 -17.2,-90 -162.9,-178.2 c-84.3,-51.7 -153.3,-99.6 -153.3,-107.3 c0,-36.4 208.9,-195.5 337.3,-258.7 c331.5,-164.8 703.2,-162.9 1042.4,1.9 c191.6,93.9 421.6,321.9 525.1,521.2 c78.6,151.4 134.1,195.5 252.9,195.5 c53.7,0 84.3,-15.3 132.2,-63.2 c84.3,-84.3 99.6,-147.5 59.4,-249.1 c-136,-358.3 -513.5,-728.2 -892.9,-873.8 c-421.6,-162.9 -873.8,-151.4 -1278.1,36.4 c-197.4,92 -308.5,168.6 -467.6,321.9 l-128.4,120.7 l-139.9,-86.2 c-147.5,-92 -216.5,-109.2 -235.7,-57.5 c-5.8,17.3 -11.5,277.9 -11.5,580.6 c0,578.7 1.9,596 88.1,596 C3469.8611810684206,-1944.5 3709.3611810684206,-2053.7 3979.5611810684204,-2185.9 z" id="svg_4" fill="#04b8b8" fill-opacity="1" stroke="#2f9291"/></g></g></g></svg>